<?xml version="1.0" encoding="UTF-8" standalone="no"?>
<svg width="22px" height="22px" viewBox="0 0 22 22" version="1.1" xmlns="http://www.w3.org/2000/svg" xmlns:xlink="http://www.w3.org/1999/xlink">
    <!-- Generator: sketchtool 39.1 (31720) - http://www.bohemiancoding.com/sketch -->
    <title>0484AAC9-F378-44D5-A375-241EE1B31550</title>
    <desc>Created with sketchtool.</desc>
    <defs></defs>
    <g id="Page-1" stroke="none" stroke-width="1" fill="none" fill-rule="evenodd">
        <g id="player" transform="translate(-693.000000, -486.000000)" fill="#FFFFFF">
            <g id="equiBlanco" transform="translate(693.000000, 486.000000)">
                <path d="M21.4306141,18.6045718 L13.8087788,10.9827365 L21.4306141,3.36090118 C22.1928494,2.59866588 22.1928494,1.35139529 21.4306141,0.58916 C20.6683788,-0.173075294 19.4211082,-0.173075294 18.6588729,0.58916 L11.0370376,8.21099529 L3.41520235,0.58916 C2.65296706,-0.173075294 1.40569647,-0.173075294 0.64372,0.58916 C-0.118515294,1.35139529 -0.118515294,2.59866588 0.64372,3.36090118 L8.26555529,10.9827365 L0.64372,18.6045718 C-0.118515294,19.3668071 -0.118515294,20.6140776 0.64372,21.3763129 C1.40569647,22.1382894 2.65296706,22.1382894 3.41520235,21.3760541 L11.0370376,13.7542188 L18.6591318,21.3760541 C19.4211082,22.1382894 20.6683788,22.1382894 21.4306141,21.3763129 C22.1928494,20.6140776 22.1928494,19.3668071 21.4306141,18.6045718" id="Fill-31"></path>
            </g>
        </g>
    </g>
</svg>